# xmcd
#
# Track frame offsets:
# 150
# 23277
# 44595
# 66870
# 92302
# 116760
# 138332
# 165277
# 183540
# 202247
# 225325
# 250507
# 265962
# 283250
#
# Disc length: 3999 seconds
#
#
# Revision: 1
# Processed by: cddbd v1.5.1PL0 Copyright (c) Steve Scherf et al.
# Submitted via: FreeRIP 2.90 
#
DISCID=bb0f9d0e
DTITLE=Jesus Volt - Electro Button Funky CoXXX II
DYEAR=2004
DGENRE=Blues
TTITLE0=The Cornbread (Part I)
TTITLE1=Funky Mama
TTITLE2=Elements And Things
TTITLE3=Creeping Kingsnake
TTITLE4=Mannish Boy
TTITLE5=Black Bone Dust
TTITLE6=Hard Times
TTITLE7=Women Fall Down From The Sky
TTITLE8=I Ain't Afraid (Of Women With Strong Breast)
TTITLE9=Call It Love
TTITLE10=Help Me
TTITLE11=Do The Funky Cornbread (Remix by DJ Zebra)
TTITLE12=Hard Times (Mojo Beat Remix By T And Masson)
TTITLE13=I Ain't Afraid (Remix By DJ Cook)
EXTD=YEAR: 2004
EXTT0=
EXTT1=
EXTT2=
EXTT3=
EXTT4=
EXTT5=
EXTT6=
EXTT7=
EXTT8=
EXTT9=
EXTT10=
EXTT11=
EXTT12=
EXTT13=
PLAYORDER=
